<svg width="886" height="306" viewBox="0 0 886 306" fill="none" xmlns="http://www.w3.org/2000/svg">
<line x1="502.227" y1="152.717" x2="885.05" y2="152.717" stroke="#444444"/>
<path d="M593.874 152.693L636.294 25.1548L690.477 25.154" stroke="#444444"/>
<path d="M593.874 152.693L683.104 276.783L740.618 276.783" stroke="#444444"/>
<circle cx="594" cy="152.714" r="1.96814" fill="white"/>
<circle cx="637" cy="25.7135" r="1.96814" fill="white"/>
<circle cx="683" cy="276.714" r="1.96814" fill="white"/>
<line y1="-0.5" x2="382.823" y2="-0.5" transform="matrix(-1 0 0 1 382.823 153.217)" stroke="#444444"/>
<path d="M291.176 152.693L248.756 25.1548L194.573 25.154" stroke="#444444"/>
<path d="M291.176 152.693L201.947 276.783L144.433 276.783" stroke="#444444"/>
<circle cx="1.96814" cy="1.96814" r="1.96814" transform="matrix(-1 0 0 1 293.019 150.745)" fill="white"/>
<circle cx="1.96814" cy="1.96814" r="1.96814" transform="matrix(-1 0 0 1 250.019 23.7454)" fill="white"/>
<circle cx="1.96814" cy="1.96814" r="1.96814" transform="matrix(-1 0 0 1 204.019 274.745)" fill="white"/>
<g opacity="0.2" filter="url(#filter0_f_391_26050)">
<circle cx="444" cy="153.569" r="80" fill="#FFAD3A"/>
</g>
<g filter="url(#filter1_f_391_26050)">
<circle cx="444" cy="153.569" r="47.619" fill="#D50707"/>
</g>
<g filter="url(#filter2_f_391_26050)">
<circle cx="444" cy="153.569" r="33.3333" fill="#FA6513"/>
</g>
<g filter="url(#filter3_f_391_26050)">
<circle cx="444" cy="153.569" r="20" fill="#FFB904"/>
</g>
<g filter="url(#filter4_f_391_26050)">
<path d="M444 116.426L444.679 134.65C444.966 142.366 453.218 147.131 460.044 143.521L476.166 134.997L460.723 144.698C454.185 148.805 454.185 158.333 460.723 162.44L476.166 172.14L460.044 163.616C453.218 160.007 444.966 164.772 444.679 172.488L444 190.712L443.321 172.488C443.033 164.772 434.781 160.007 427.955 163.616L411.833 172.14L427.276 162.44C433.815 158.333 433.815 148.805 427.276 144.698L411.833 134.997L427.955 143.521C434.781 147.131 443.033 142.366 443.321 134.65L444 116.426Z" fill="#FFDE6A"/>
</g>
<ellipse cx="428.417" cy="127.465" rx="0.952381" ry="20.9524" transform="rotate(-30 428.417 127.465)" fill="url(#paint0_radial_391_26050)"/>
<ellipse cx="458.893" cy="180.251" rx="0.952381" ry="20.9524" transform="rotate(-30 458.893 180.251)" fill="url(#paint1_radial_391_26050)"/>
<ellipse cx="413.488" cy="153.744" rx="0.952381" ry="20.9524" transform="rotate(-90 413.488 153.744)" fill="url(#paint2_radial_391_26050)"/>
<ellipse cx="474.44" cy="153.744" rx="0.952381" ry="20.9524" transform="rotate(-90 474.44 153.744)" fill="url(#paint3_radial_391_26050)"/>
<ellipse cx="458.893" cy="126.512" rx="0.952381" ry="20.9524" transform="rotate(30 458.893 126.512)" fill="url(#paint4_radial_391_26050)"/>
<ellipse cx="428.417" cy="179.298" rx="0.952381" ry="20.9524" transform="rotate(30 428.417 179.298)" fill="url(#paint5_radial_391_26050)"/>
<g filter="url(#filter5_f_391_26050)">
<path d="M402.333 109.539C404.925 109.581 406.871 110.6 409.291 111.391C411.848 112.227 414.505 113.705 416.699 115.28C419.978 117.634 420.545 122.508 421.381 126.074C422.172 129.447 423.871 132.459 424.714 135.809C425.238 137.889 425.615 139.998 427.029 141.695C429.005 144.066 432.854 146.507 435.786 144.262C437.053 143.291 437.865 141.644 439.476 141.312C441.105 140.977 443.074 139.245 444.371 138.349C448.642 135.395 453.843 133.97 459 134.063C461.689 134.112 463.949 135.172 466.169 136.629C467.675 137.617 469.758 139.022 470.336 140.822C471.548 144.594 472.664 148.153 474.357 151.762C474.985 153.099 475.773 153.829 476.831 154.791C478.277 156.105 476.696 156.578 475.482 157.211C472.888 158.563 470.052 159.933 467.254 160.783C462.462 162.238 457.506 162.863 452.625 163.891C449.29 164.593 446.411 166.423 443.101 167.158C441.856 167.435 440.46 167.865 439.291 168.402C437.812 169.081 436.397 170.589 435.217 171.695C434.014 172.823 433.783 174.415 433.762 175.994C433.74 177.67 433.485 179.631 433.921 181.259C434.412 183.097 435.614 185.034 436.685 186.603C438.662 189.497 442.479 191.44 445.455 193.137C447.576 194.347 449.832 194.202 452.029 195.068C455.797 196.554 459.395 198.124 463.273 199.328C465.284 199.952 467.21 200.822 469.238 201.391C471.334 201.98 473.45 202.27 475.508 203.005C477.352 203.664 479.417 204.154 481.341 204.539C481.566 204.584 481.888 204.865 481.58 204.619C479.741 203.148 478.513 201.138 477.095 199.301" stroke="url(#paint6_radial_391_26050)" stroke-width="3.80952" stroke-linecap="round"/>
<path d="M398.524 155.254C399.521 154.333 400.692 153.64 401.804 152.873C403.748 151.533 405.315 149.958 407.545 149.063C412.005 147.275 416.965 143.741 421.963 144.063C423.767 144.18 425.763 145.565 427.201 146.524C429.861 148.297 432.108 150.545 434.635 152.476C436.878 154.19 439.33 155.674 441.646 157.291C443.624 158.672 445.376 160.214 447.4 161.55C450.107 163.338 452.899 165.118 456.024 166.061C459.376 167.072 462.815 166.92 466.275 166.92C469.842 166.92 472.522 165.584 475.521 163.852C477.025 162.983 477.897 161.898 478.788 160.399C480.355 157.768 481.886 155.093 483.286 152.37C484.181 150.63 484.868 149.249 485.244 147.291C485.655 145.146 485.816 142.857 486.434 140.756C486.935 139.055 487.975 137.654 488.286 135.862C488.481 134.737 488.608 133.6 488.815 132.476C489.236 130.186 489 127.732 489 125.412C489 124.47 489.1 123.463 488.947 122.529C488.721 121.145 487.636 120.216 486.765 119.196C485.01 117.14 482.69 115.527 481.262 113.23C480.157 111.453 480.258 110.014 481.156 108.045C482.094 105.988 484.053 104.283 486.156 103.494C486.632 103.316 488.476 102.777 488.762 103.349" stroke="url(#paint7_radial_391_26050)" stroke-width="3.80952" stroke-linecap="round"/>
<path d="M461.143 106.682C457.946 106.949 456.381 110.171 456.381 113.031C456.381 116.055 457.401 118.083 458.934 120.637C460.39 123.063 461.602 125.688 462.81 128.243C465.541 134.021 467.036 140.061 468.669 146.206C470.151 151.782 471.928 157.289 474.106 162.635C475.658 166.445 478.226 170.965 477.796 175.267C477.672 176.507 476.269 176.61 475.27 176.814C473.458 177.185 471.63 177.677 469.807 177.965C468.21 178.217 466.564 178.094 464.952 178.111C461.121 178.151 457.295 178.751 453.471 178.957C446.13 179.353 438.748 179.156 431.407 179.645C424.747 180.089 418.165 180.254 411.487 180.254C409.424 180.254 408.255 177.399 407.585 175.849C406.857 174.165 406.065 172.214 406.156 170.346C406.26 168.216 407.854 166.531 409.212 165.015C411.667 162.274 414.313 159.643 417.743 158.177C423.663 155.646 430.524 156.278 436.672 154.433C438.704 153.824 439.945 152.209 440.72 150.333C442.077 147.047 443.222 143.72 443.656 140.174C443.994 137.409 443.748 134.51 443.643 131.735C443.5 127.963 443.915 123.932 442.545 120.346C441.813 118.429 441.256 116.214 440.217 114.433C439.252 112.779 438.052 111.269 437.003 109.672C436.204 108.456 435.176 107.899 433.974 107.079C432.732 106.232 432.942 106.576 433.762 107.396" stroke="url(#paint8_radial_391_26050)" stroke-width="3.80952" stroke-linecap="round"/>
<path d="M391.619 128.587C400.455 133.169 409.899 135.574 419.529 137.873C433.96 141.317 446.255 149.237 457.995 158.058C462.561 161.489 467.056 164.948 469.622 170.161C471.262 173.494 473.335 177.232 476.328 179.539C478.931 181.546 482.017 182.776 485.296 183.203C487.498 183.49 491.55 183.99 493.365 182.449C494.028 181.887 496.928 179.306 495.508 181.642C492.098 187.253 486.555 190.805 482.333 195.73" stroke="url(#paint9_radial_391_26050)" stroke-width="3.80952" stroke-linecap="round"/>
</g>
<g style="mix-blend-mode:color-dodge">
<circle cx="420.191" cy="133.569" r="0.952381" fill="#FCE306" fill-opacity="0.7"/>
<circle cx="424" cy="122.14" r="0.952381" fill="#FCE306" fill-opacity="0.7"/>
<circle cx="440.191" cy="119.283" r="0.952381" fill="#FCE306" fill-opacity="0.7"/>
<circle cx="452.572" cy="117.378" r="0.952381" fill="#FCE306" fill-opacity="0.7"/>
<circle cx="451.619" cy="125.95" r="0.952381" fill="#FCE306" fill-opacity="0.7"/>
<circle cx="448.762" cy="139.283" r="0.952381" fill="#FCE306" fill-opacity="0.7"/>
<circle cx="432.572" cy="142.14" r="0.952381" fill="#FCE306" fill-opacity="0.7"/>
<circle cx="424.952" cy="155.474" r="0.952381" fill="#FCE306" fill-opacity="0.7"/>
<circle cx="402.095" cy="157.378" r="0.952381" fill="#FCE306" fill-opacity="0.7"/>
<circle cx="417.333" cy="144.045" r="0.952381" fill="#FCE306" fill-opacity="0.7"/>
<circle cx="435.428" cy="132.616" r="0.952381" fill="#FCE306" fill-opacity="0.7"/>
<circle cx="465.905" cy="124.045" r="0.952381" fill="#FCE306" fill-opacity="0.7"/>
<circle cx="462.095" cy="118.331" r="0.952381" fill="#FCE306" fill-opacity="0.7"/>
<circle cx="483.048" cy="127.854" r="0.952381" fill="#FCE306" fill-opacity="0.7"/>
<circle cx="473.524" cy="137.378" r="0.952381" fill="#FCE306" fill-opacity="0.7"/>
<circle cx="471.619" cy="145.95" r="0.952381" fill="#FCE306" fill-opacity="0.7"/>
<circle cx="485.905" cy="146.902" r="0.952381" fill="#FCE306" fill-opacity="0.7"/>
<circle cx="488.762" cy="157.378" r="0.952381" fill="#FCE306" fill-opacity="0.7"/>
<circle cx="481.143" cy="159.283" r="0.952381" fill="#FCE306" fill-opacity="0.7"/>
<circle cx="474.476" cy="154.521" r="0.952381" fill="#FCE306" fill-opacity="0.7"/>
<circle cx="464" cy="154.521" r="0.952381" fill="#FCE306" fill-opacity="0.7"/>
<circle cx="453.524" cy="147.854" r="0.952381" fill="#FCE306" fill-opacity="0.7"/>
<circle cx="436.381" cy="163.093" r="0.952381" fill="#FCE306" fill-opacity="0.7"/>
<circle cx="424" cy="171.664" r="0.952381" fill="#FCE306" fill-opacity="0.7"/>
<circle cx="408.762" cy="174.521" r="0.952381" fill="#FCE306" fill-opacity="0.7"/>
<circle cx="431.619" cy="182.14" r="0.952381" fill="#FCE306" fill-opacity="0.7"/>
<circle cx="424.952" cy="190.712" r="0.952381" fill="#FCE306" fill-opacity="0.7"/>
<circle cx="450.667" cy="188.807" r="0.952381" fill="#FCE306" fill-opacity="0.7"/>
<circle cx="466.857" cy="184.997" r="0.952381" fill="#FCE306" fill-opacity="0.7"/>
<circle cx="452.572" cy="179.283" r="0.952381" fill="#FCE306" fill-opacity="0.7"/>
<circle cx="438.286" cy="173.569" r="0.952381" fill="#FCE306" fill-opacity="0.7"/>
<circle cx="460.191" cy="167.854" r="0.952381" fill="#FCE306" fill-opacity="0.7"/>
<circle cx="474.476" cy="172.616" r="0.952381" fill="#FCE306" fill-opacity="0.7"/>
<circle cx="487.809" cy="169.759" r="0.952381" fill="#FCE306" fill-opacity="0.7"/>
<circle cx="412.572" cy="164.045" r="0.952381" fill="#FCE306" fill-opacity="0.7"/>
<circle cx="409.714" cy="147.854" r="0.952381" fill="#FCE306" fill-opacity="0.7"/>
<circle cx="407.809" cy="140.236" r="0.952381" fill="#FCE306" fill-opacity="0.7"/>
<circle cx="464" cy="132.616" r="0.952381" fill="#FCE306" fill-opacity="0.7"/>
<circle cx="449.714" cy="166.902" r="0.952381" fill="#FCE306" fill-opacity="0.7"/>
<circle cx="444" cy="151.664" r="0.952381" fill="#FCE306" fill-opacity="0.7"/>
<circle cx="416.857" cy="184.521" r="0.47619" fill="#FCE306" fill-opacity="0.7"/>
<circle cx="414.952" cy="176.902" r="0.47619" fill="#FCE306" fill-opacity="0.7"/>
<circle cx="418.762" cy="169.283" r="0.47619" fill="#FCE306" fill-opacity="0.7"/>
<circle cx="428.286" cy="160.712" r="0.47619" fill="#FCE306" fill-opacity="0.7"/>
<circle cx="437.81" cy="152.14" r="0.47619" fill="#FCE306" fill-opacity="0.7"/>
<circle cx="440.667" cy="136.902" r="0.47619" fill="#FCE306" fill-opacity="0.7"/>
<circle cx="462.571" cy="146.426" r="0.47619" fill="#FCE306" fill-opacity="0.7"/>
<circle cx="471.143" cy="129.283" r="0.47619" fill="#FCE306" fill-opacity="0.7"/>
<circle cx="457.81" cy="123.569" r="0.47619" fill="#FCE306" fill-opacity="0.7"/>
<circle cx="444.476" cy="117.855" r="0.47619" fill="#FCE306" fill-opacity="0.7"/>
<circle cx="431.143" cy="124.521" r="0.47619" fill="#FCE306" fill-opacity="0.7"/>
<circle cx="417.81" cy="131.188" r="0.47619" fill="#FCE306" fill-opacity="0.7"/>
<circle cx="423.524" cy="144.521" r="0.47619" fill="#FCE306" fill-opacity="0.7"/>
<circle cx="429.238" cy="157.855" r="0.47619" fill="#FCE306" fill-opacity="0.7"/>
<circle cx="439.714" cy="168.331" r="0.47619" fill="#FCE306" fill-opacity="0.7"/>
<circle cx="450.191" cy="178.807" r="0.47619" fill="#FCE306" fill-opacity="0.7"/>
<circle cx="462.571" cy="183.569" r="0.47619" fill="#FCE306" fill-opacity="0.7"/>
<circle cx="470.191" cy="177.855" r="0.47619" fill="#FCE306" fill-opacity="0.7"/>
<circle cx="479.714" cy="170.235" r="0.47619" fill="#FCE306" fill-opacity="0.7"/>
<circle cx="457.81" cy="161.664" r="0.47619" fill="#FCE306" fill-opacity="0.7"/>
<circle cx="435.905" cy="153.093" r="0.47619" fill="#FCE306" fill-opacity="0.7"/>
<circle cx="442.571" cy="145.474" r="0.47619" fill="#FCE306" fill-opacity="0.7"/>
<circle cx="450.191" cy="134.997" r="0.47619" fill="#FCE306" fill-opacity="0.7"/>
<circle cx="463.524" cy="140.712" r="0.47619" fill="#FCE306" fill-opacity="0.7"/>
<circle cx="469.238" cy="134.045" r="0.47619" fill="#FCE306" fill-opacity="0.7"/>
<circle cx="474" cy="123.569" r="0.47619" fill="#FCE306" fill-opacity="0.7"/>
<circle cx="435.905" cy="145.474" r="0.47619" fill="#FCE306" fill-opacity="0.7"/>
<circle cx="442.571" cy="181.664" r="0.47619" fill="#FCE306" fill-opacity="0.7"/>
<circle cx="437.81" cy="192.14" r="0.47619" fill="#FCE306" fill-opacity="0.7"/>
<circle cx="461.619" cy="176.902" r="0.47619" fill="#FCE306" fill-opacity="0.7"/>
<circle cx="484.476" cy="165.474" r="0.47619" fill="#FCE306" fill-opacity="0.7"/>
<circle cx="470.191" cy="165.474" r="0.47619" fill="#FCE306" fill-opacity="0.7"/>
<circle cx="444.476" cy="173.093" r="0.47619" fill="#FCE306" fill-opacity="0.7"/>
<circle cx="444.476" cy="173.093" r="0.47619" fill="#FCE306" fill-opacity="0.7"/>
<circle cx="416.857" cy="188.331" r="0.47619" fill="#FCE306" fill-opacity="0.7"/>
<circle cx="472.095" cy="141.664" r="0.47619" fill="#FFC804" fill-opacity="0.8"/>
<circle cx="476.857" cy="131.188" r="0.47619" fill="#FFC804" fill-opacity="0.8"/>
<circle cx="479.714" cy="121.664" r="0.47619" fill="#FFC804" fill-opacity="0.8"/>
<circle cx="480.667" cy="116.902" r="0.47619" fill="#FFC804" fill-opacity="0.8"/>
<circle cx="470.191" cy="116.902" r="0.47619" fill="#FFC804" fill-opacity="0.8"/>
<circle cx="457.81" cy="114.997" r="0.47619" fill="#FFC804" fill-opacity="0.8"/>
<circle cx="434.952" cy="114.997" r="0.47619" fill="#FFC804" fill-opacity="0.8"/>
<circle cx="415.905" cy="120.712" r="0.47619" fill="#FFC804" fill-opacity="0.8"/>
<circle cx="402.571" cy="131.188" r="0.47619" fill="#FFC804" fill-opacity="0.8"/>
<circle cx="399.714" cy="147.378" r="0.47619" fill="#FFC804" fill-opacity="0.8"/>
<circle cx="408.286" cy="167.378" r="0.47619" fill="#FFC804" fill-opacity="0.8"/>
<circle cx="416.857" cy="191.188" r="0.47619" fill="#FFC804" fill-opacity="0.8"/>
<circle cx="422.571" cy="183.569" r="0.47619" fill="#FFC804" fill-opacity="0.8"/>
<circle cx="428.286" cy="175.95" r="0.47619" fill="#FFC804" fill-opacity="0.8"/>
<circle cx="426.381" cy="163.569" r="0.47619" fill="#FFC804" fill-opacity="0.8"/>
<circle cx="417.81" cy="153.093" r="0.47619" fill="#FFC804" fill-opacity="0.8"/>
<circle cx="452.095" cy="158.807" r="0.47619" fill="#FFC804" fill-opacity="0.8"/>
<circle cx="470.191" cy="151.188" r="0.47619" fill="#FFC804" fill-opacity="0.8"/>
<circle cx="458.762" cy="138.807" r="0.47619" fill="#FFC804" fill-opacity="0.8"/>
<circle cx="444.476" cy="132.14" r="0.47619" fill="#FFC804" fill-opacity="0.8"/>
<circle cx="427.333" cy="132.14" r="0.47619" fill="#FFC804" fill-opacity="0.8"/>
<circle cx="428.286" cy="148.331" r="0.47619" fill="#FFC804" fill-opacity="0.8"/>
<circle cx="448.286" cy="153.093" r="0.47619" fill="#FFC804" fill-opacity="0.8"/>
<circle cx="469.238" cy="154.997" r="0.47619" fill="#FFC804" fill-opacity="0.8"/>
<circle cx="471.143" cy="157.855" r="0.47619" fill="#FFC804" fill-opacity="0.8"/>
</g>
<g style="mix-blend-mode:hard-light">
<circle cx="0.952381" cy="0.952381" r="0.952381" transform="matrix(-1 0 0 1 469.714 132.616)" fill="#FCE306" fill-opacity="0.7"/>
<circle cx="0.952381" cy="0.952381" r="0.952381" transform="matrix(-1 0 0 1 465.905 121.188)" fill="#FCE306" fill-opacity="0.7"/>
<circle cx="0.952381" cy="0.952381" r="0.952381" transform="matrix(-1 0 0 1 449.714 118.331)" fill="#FCE306" fill-opacity="0.7"/>
<circle cx="0.952381" cy="0.952381" r="0.952381" transform="matrix(-1 0 0 1 437.333 116.426)" fill="#FCE306" fill-opacity="0.7"/>
<circle cx="0.952381" cy="0.952381" r="0.952381" transform="matrix(-1 0 0 1 438.286 124.997)" fill="#FCE306" fill-opacity="0.7"/>
<circle cx="0.952381" cy="0.952381" r="0.952381" transform="matrix(-1 0 0 1 441.143 138.331)" fill="#FCE306" fill-opacity="0.7"/>
<circle cx="0.952381" cy="0.952381" r="0.952381" transform="matrix(-1 0 0 1 457.333 141.188)" fill="#FCE306" fill-opacity="0.7"/>
<circle cx="0.952381" cy="0.952381" r="0.952381" transform="matrix(-1 0 0 1 464.952 154.521)" fill="#FCE306" fill-opacity="0.7"/>
<circle cx="0.952381" cy="0.952381" r="0.952381" transform="matrix(-1 0 0 1 487.81 156.426)" fill="#FCE306" fill-opacity="0.7"/>
<circle cx="0.952381" cy="0.952381" r="0.952381" transform="matrix(-1 0 0 1 472.571 143.093)" fill="#FCE306" fill-opacity="0.7"/>
<circle cx="0.952381" cy="0.952381" r="0.952381" transform="matrix(-1 0 0 1 454.476 131.664)" fill="#FCE306" fill-opacity="0.7"/>
<circle cx="0.952381" cy="0.952381" r="0.952381" transform="matrix(-1 0 0 1 424 123.093)" fill="#FCE306" fill-opacity="0.7"/>
<circle cx="0.952381" cy="0.952381" r="0.952381" transform="matrix(-1 0 0 1 427.81 117.378)" fill="#FCE306" fill-opacity="0.7"/>
<circle cx="0.952381" cy="0.952381" r="0.952381" transform="matrix(-1 0 0 1 406.857 126.902)" fill="#FCE306" fill-opacity="0.7"/>
<circle cx="0.952381" cy="0.952381" r="0.952381" transform="matrix(-1 0 0 1 416.381 136.426)" fill="#FCE306" fill-opacity="0.7"/>
<circle cx="0.952381" cy="0.952381" r="0.952381" transform="matrix(-1 0 0 1 418.286 144.997)" fill="#FCE306" fill-opacity="0.7"/>
<circle cx="0.952381" cy="0.952381" r="0.952381" transform="matrix(-1 0 0 1 404 145.95)" fill="#FCE306" fill-opacity="0.7"/>
<circle cx="0.952381" cy="0.952381" r="0.952381" transform="matrix(-1 0 0 1 401.143 156.426)" fill="#FCE306" fill-opacity="0.7"/>
<circle cx="0.952381" cy="0.952381" r="0.952381" transform="matrix(-1 0 0 1 408.762 158.331)" fill="#FCE306" fill-opacity="0.7"/>
<circle cx="0.952381" cy="0.952381" r="0.952381" transform="matrix(-1 0 0 1 415.429 153.569)" fill="#FCE306" fill-opacity="0.7"/>
<circle cx="0.952381" cy="0.952381" r="0.952381" transform="matrix(-1 0 0 1 425.905 153.569)" fill="#FCE306" fill-opacity="0.7"/>
<circle cx="0.952381" cy="0.952381" r="0.952381" transform="matrix(-1 0 0 1 436.381 146.902)" fill="#FCE306" fill-opacity="0.7"/>
<circle cx="0.952381" cy="0.952381" r="0.952381" transform="matrix(-1 0 0 1 453.524 162.14)" fill="#FCE306" fill-opacity="0.7"/>
<circle cx="0.952381" cy="0.952381" r="0.952381" transform="matrix(-1 0 0 1 465.905 170.712)" fill="#FCE306" fill-opacity="0.7"/>
<circle cx="0.952381" cy="0.952381" r="0.952381" transform="matrix(-1 0 0 1 481.143 173.569)" fill="#FCE306" fill-opacity="0.7"/>
<circle cx="0.952381" cy="0.952381" r="0.952381" transform="matrix(-1 0 0 1 458.286 181.188)" fill="#FCE306" fill-opacity="0.7"/>
<circle cx="0.952381" cy="0.952381" r="0.952381" transform="matrix(-1 0 0 1 464.952 189.759)" fill="#FCE306" fill-opacity="0.7"/>
<circle cx="0.952381" cy="0.952381" r="0.952381" transform="matrix(-1 0 0 1 439.238 187.854)" fill="#FCE306" fill-opacity="0.7"/>
<circle cx="0.952381" cy="0.952381" r="0.952381" transform="matrix(-1 0 0 1 423.048 184.045)" fill="#FCE306" fill-opacity="0.7"/>
<circle cx="0.952381" cy="0.952381" r="0.952381" transform="matrix(-1 0 0 1 437.333 178.331)" fill="#FCE306" fill-opacity="0.7"/>
<circle cx="0.952381" cy="0.952381" r="0.952381" transform="matrix(-1 0 0 1 451.619 172.616)" fill="#FCE306" fill-opacity="0.7"/>
<circle cx="0.952381" cy="0.952381" r="0.952381" transform="matrix(-1 0 0 1 429.714 166.902)" fill="#FCE306" fill-opacity="0.7"/>
<circle cx="0.952381" cy="0.952381" r="0.952381" transform="matrix(-1 0 0 1 415.429 171.664)" fill="#FCE306" fill-opacity="0.7"/>
<circle cx="0.952381" cy="0.952381" r="0.952381" transform="matrix(-1 0 0 1 402.095 168.807)" fill="#FCE306" fill-opacity="0.7"/>
<circle cx="0.952381" cy="0.952381" r="0.952381" transform="matrix(-1 0 0 1 477.333 163.093)" fill="#FCE306" fill-opacity="0.7"/>
<circle cx="0.952381" cy="0.952381" r="0.952381" transform="matrix(-1 0 0 1 480.19 146.902)" fill="#FCE306" fill-opacity="0.7"/>
<circle cx="0.952381" cy="0.952381" r="0.952381" transform="matrix(-1 0 0 1 482.095 139.283)" fill="#FCE306" fill-opacity="0.7"/>
<circle cx="0.952381" cy="0.952381" r="0.952381" transform="matrix(-1 0 0 1 425.905 131.664)" fill="#FCE306" fill-opacity="0.7"/>
<circle cx="0.952381" cy="0.952381" r="0.952381" transform="matrix(-1 0 0 1 440.19 165.95)" fill="#FCE306" fill-opacity="0.7"/>
<circle cx="0.952381" cy="0.952381" r="0.952381" transform="matrix(-1 0 0 1 445.905 150.712)" fill="#FCE306" fill-opacity="0.7"/>
<circle cx="0.47619" cy="0.47619" r="0.47619" transform="matrix(-1 0 0 1 472.571 184.045)" fill="#FCE306" fill-opacity="0.7"/>
<circle cx="0.47619" cy="0.47619" r="0.47619" transform="matrix(-1 0 0 1 474.476 176.426)" fill="#FCE306" fill-opacity="0.7"/>
<circle cx="0.47619" cy="0.47619" r="0.47619" transform="matrix(-1 0 0 1 470.667 168.807)" fill="#FCE306" fill-opacity="0.7"/>
<circle cx="0.47619" cy="0.47619" r="0.47619" transform="matrix(-1 0 0 1 461.143 160.236)" fill="#FCE306" fill-opacity="0.7"/>
<circle cx="0.47619" cy="0.47619" r="0.47619" transform="matrix(-1 0 0 1 451.619 151.664)" fill="#FCE306" fill-opacity="0.7"/>
<circle cx="0.47619" cy="0.47619" r="0.47619" transform="matrix(-1 0 0 1 448.762 136.426)" fill="#FCE306" fill-opacity="0.7"/>
<circle cx="0.47619" cy="0.47619" r="0.47619" transform="matrix(-1 0 0 1 426.857 145.95)" fill="#FCE306" fill-opacity="0.7"/>
<circle cx="0.47619" cy="0.47619" r="0.47619" transform="matrix(-1 0 0 1 418.286 128.807)" fill="#FCE306" fill-opacity="0.7"/>
<circle cx="0.47619" cy="0.47619" r="0.47619" transform="matrix(-1 0 0 1 431.619 123.093)" fill="#FCE306" fill-opacity="0.7"/>
<circle cx="0.47619" cy="0.47619" r="0.47619" transform="matrix(-1 0 0 1 444.952 117.378)" fill="#FCE306" fill-opacity="0.7"/>
<circle cx="0.47619" cy="0.47619" r="0.47619" transform="matrix(-1 0 0 1 458.286 124.045)" fill="#FCE306" fill-opacity="0.7"/>
<circle cx="0.47619" cy="0.47619" r="0.47619" transform="matrix(-1 0 0 1 471.619 130.712)" fill="#FCE306" fill-opacity="0.7"/>
<circle cx="0.47619" cy="0.47619" r="0.47619" transform="matrix(-1 0 0 1 465.905 144.045)" fill="#FCE306" fill-opacity="0.7"/>
<circle cx="0.47619" cy="0.47619" r="0.47619" transform="matrix(-1 0 0 1 460.19 157.378)" fill="#FCE306" fill-opacity="0.7"/>
<circle cx="0.47619" cy="0.47619" r="0.47619" transform="matrix(-1 0 0 1 449.714 167.854)" fill="#FCE306" fill-opacity="0.7"/>
<circle cx="0.47619" cy="0.47619" r="0.47619" transform="matrix(-1 0 0 1 439.238 178.331)" fill="#FCE306" fill-opacity="0.7"/>
<circle cx="0.47619" cy="0.47619" r="0.47619" transform="matrix(-1 0 0 1 426.857 183.093)" fill="#FCE306" fill-opacity="0.7"/>
<circle cx="0.47619" cy="0.47619" r="0.47619" transform="matrix(-1 0 0 1 419.238 177.378)" fill="#FCE306" fill-opacity="0.7"/>
<circle cx="0.47619" cy="0.47619" r="0.47619" transform="matrix(-1 0 0 1 409.714 169.759)" fill="#FCE306" fill-opacity="0.7"/>
<circle cx="0.47619" cy="0.47619" r="0.47619" transform="matrix(-1 0 0 1 431.619 161.188)" fill="#FCE306" fill-opacity="0.7"/>
<circle cx="0.47619" cy="0.47619" r="0.47619" transform="matrix(-1 0 0 1 453.524 152.616)" fill="#FCE306" fill-opacity="0.7"/>
<circle cx="0.47619" cy="0.47619" r="0.47619" transform="matrix(-1 0 0 1 446.857 144.997)" fill="#FCE306" fill-opacity="0.7"/>
<circle cx="0.47619" cy="0.47619" r="0.47619" transform="matrix(-1 0 0 1 439.238 134.521)" fill="#FCE306" fill-opacity="0.7"/>
<circle cx="0.47619" cy="0.47619" r="0.47619" transform="matrix(-1 0 0 1 425.905 140.236)" fill="#FCE306" fill-opacity="0.7"/>
<circle cx="0.47619" cy="0.47619" r="0.47619" transform="matrix(-1 0 0 1 420.19 133.569)" fill="#FCE306" fill-opacity="0.7"/>
<circle cx="0.47619" cy="0.47619" r="0.47619" transform="matrix(-1 0 0 1 415.429 123.093)" fill="#FCE306" fill-opacity="0.7"/>
<circle cx="0.47619" cy="0.47619" r="0.47619" transform="matrix(-1 0 0 1 453.524 144.997)" fill="#FCE306" fill-opacity="0.7"/>
<circle cx="0.47619" cy="0.47619" r="0.47619" transform="matrix(-1 0 0 1 446.857 181.188)" fill="#FCE306" fill-opacity="0.7"/>
<circle cx="0.47619" cy="0.47619" r="0.47619" transform="matrix(-1 0 0 1 451.619 191.664)" fill="#FCE306" fill-opacity="0.7"/>
<circle cx="0.47619" cy="0.47619" r="0.47619" transform="matrix(-1 0 0 1 427.81 176.426)" fill="#FCE306" fill-opacity="0.7"/>
<circle cx="0.47619" cy="0.47619" r="0.47619" transform="matrix(-1 0 0 1 404.952 164.997)" fill="#FCE306" fill-opacity="0.7"/>
<circle cx="0.47619" cy="0.47619" r="0.47619" transform="matrix(-1 0 0 1 419.238 164.997)" fill="#FCE306" fill-opacity="0.7"/>
<circle cx="0.47619" cy="0.47619" r="0.47619" transform="matrix(-1 0 0 1 444.952 172.616)" fill="#FCE306" fill-opacity="0.7"/>
<circle cx="0.47619" cy="0.47619" r="0.47619" transform="matrix(-1 0 0 1 444.952 172.616)" fill="#FCE306" fill-opacity="0.7"/>
<circle cx="0.47619" cy="0.47619" r="0.47619" transform="matrix(-1 0 0 1 472.571 187.854)" fill="#FCE306" fill-opacity="0.7"/>
<circle cx="0.47619" cy="0.47619" r="0.47619" transform="matrix(-1 0 0 1 417.333 141.188)" fill="#FFC804" fill-opacity="0.8"/>
<circle cx="0.47619" cy="0.47619" r="0.47619" transform="matrix(-1 0 0 1 412.571 130.712)" fill="#FFC804" fill-opacity="0.8"/>
<circle cx="0.47619" cy="0.47619" r="0.47619" transform="matrix(-1 0 0 1 409.714 121.188)" fill="#FFC804" fill-opacity="0.8"/>
<circle cx="0.47619" cy="0.47619" r="0.47619" transform="matrix(-1 0 0 1 408.762 116.426)" fill="#FFC804" fill-opacity="0.8"/>
<circle cx="0.47619" cy="0.47619" r="0.47619" transform="matrix(-1 0 0 1 419.238 116.426)" fill="#FFC804" fill-opacity="0.8"/>
<circle cx="0.47619" cy="0.47619" r="0.47619" transform="matrix(-1 0 0 1 431.619 114.521)" fill="#FFC804" fill-opacity="0.8"/>
<circle cx="0.47619" cy="0.47619" r="0.47619" transform="matrix(-1 0 0 1 454.476 114.521)" fill="#FFC804" fill-opacity="0.8"/>
<circle cx="0.47619" cy="0.47619" r="0.47619" transform="matrix(-1 0 0 1 473.524 120.236)" fill="#FFC804" fill-opacity="0.8"/>
<circle cx="0.47619" cy="0.47619" r="0.47619" transform="matrix(-1 0 0 1 486.857 130.712)" fill="#FFC804" fill-opacity="0.8"/>
<circle cx="0.47619" cy="0.47619" r="0.47619" transform="matrix(-1 0 0 1 489.714 146.902)" fill="#FFC804" fill-opacity="0.8"/>
<circle cx="0.47619" cy="0.47619" r="0.47619" transform="matrix(-1 0 0 1 481.143 166.902)" fill="#FFC804" fill-opacity="0.8"/>
<circle cx="0.47619" cy="0.47619" r="0.47619" transform="matrix(-1 0 0 1 472.571 190.712)" fill="#FFC804" fill-opacity="0.8"/>
<circle cx="0.47619" cy="0.47619" r="0.47619" transform="matrix(-1 0 0 1 466.857 183.093)" fill="#FFC804" fill-opacity="0.8"/>
<circle cx="0.47619" cy="0.47619" r="0.47619" transform="matrix(-1 0 0 1 461.143 175.474)" fill="#FFC804" fill-opacity="0.8"/>
<circle cx="0.47619" cy="0.47619" r="0.47619" transform="matrix(-1 0 0 1 463.048 163.093)" fill="#FFC804" fill-opacity="0.8"/>
<circle cx="0.47619" cy="0.47619" r="0.47619" transform="matrix(-1 0 0 1 471.619 152.616)" fill="#FFC804" fill-opacity="0.8"/>
<circle cx="0.47619" cy="0.47619" r="0.47619" transform="matrix(-1 0 0 1 437.333 158.331)" fill="#FFC804" fill-opacity="0.8"/>
<circle cx="0.47619" cy="0.47619" r="0.47619" transform="matrix(-1 0 0 1 419.238 150.712)" fill="#FFC804" fill-opacity="0.8"/>
<circle cx="0.47619" cy="0.47619" r="0.47619" transform="matrix(-1 0 0 1 430.667 138.331)" fill="#FFC804" fill-opacity="0.8"/>
<circle cx="0.47619" cy="0.47619" r="0.47619" transform="matrix(-1 0 0 1 444.952 131.664)" fill="#FFC804" fill-opacity="0.8"/>
<circle cx="0.47619" cy="0.47619" r="0.47619" transform="matrix(-1 0 0 1 462.095 131.664)" fill="#FFC804" fill-opacity="0.8"/>
<circle cx="0.47619" cy="0.47619" r="0.47619" transform="matrix(-1 0 0 1 461.143 147.854)" fill="#FFC804" fill-opacity="0.8"/>
<circle cx="0.47619" cy="0.47619" r="0.47619" transform="matrix(-1 0 0 1 441.143 152.616)" fill="#FFC804" fill-opacity="0.8"/>
<circle cx="0.47619" cy="0.47619" r="0.47619" transform="matrix(-1 0 0 1 420.19 154.521)" fill="#FFC804" fill-opacity="0.8"/>
<circle cx="0.47619" cy="0.47619" r="0.47619" transform="matrix(-1 0 0 1 418.286 157.378)" fill="#FFC804" fill-opacity="0.8"/>
</g>
<mask id="mask0_391_26050" style="mask-type:alpha" maskUnits="userSpaceOnUse" x="383" y="92" width="122" height="123">
<circle cx="444" cy="153.569" r="60.9524" fill="white"/>
</mask>
<g mask="url(#mask0_391_26050)">
<g filter="url(#filter6_i_391_26050)">
<circle cx="444" cy="153.569" r="60.9524" fill="white" fill-opacity="0.01"/>
</g>
<circle cx="443.524" cy="151.188" r="63.3333" fill="url(#paint10_radial_391_26050)"/>
<circle cx="446.683" cy="156.252" r="63.3333" transform="rotate(138.992 446.683 156.252)" fill="url(#paint11_radial_391_26050)"/>
<circle cx="440.969" cy="153.395" r="63.3333" transform="rotate(138.992 440.969 153.395)" fill="url(#paint12_radial_391_26050)"/>
<circle cx="444" cy="153.569" r="60.9524" stroke="url(#paint13_linear_391_26050)" stroke-width="1.90476"/>
<g filter="url(#filter7_f_391_26050)">
<g style="mix-blend-mode:screen">
<ellipse cx="431.143" cy="141.188" rx="37.619" ry="34.2857" fill="#0DAEFF"/>
</g>
<g style="mix-blend-mode:screen">
<ellipse cx="456.857" cy="166.902" rx="37.619" ry="34.2857" fill="#FF720D"/>
</g>
<g style="mix-blend-mode:overlay">
<circle cx="448.762" cy="162.14" r="26.6667" fill="white"/>
</g>
</g>
<g style="mix-blend-mode:color-dodge">
<g style="mix-blend-mode:color-dodge" filter="url(#filter8_f_391_26050)">
<ellipse cx="444.081" cy="123.093" rx="3.80952" ry="20.9524" fill="url(#paint14_radial_391_26050)"/>
<ellipse cx="444.081" cy="184.045" rx="3.80952" ry="20.9524" fill="url(#paint15_radial_391_26050)"/>
<ellipse cx="417.465" cy="139.725" rx="3.80952" ry="20.9524" transform="rotate(-60 417.465 139.725)" fill="url(#paint16_radial_391_26050)"/>
<ellipse cx="470.251" cy="170.201" rx="3.80952" ry="20.9524" transform="rotate(-60 470.251 170.201)" fill="url(#paint17_radial_391_26050)"/>
<ellipse cx="470.251" cy="139.725" rx="3.80952" ry="20.9524" transform="rotate(60 470.251 139.725)" fill="url(#paint18_radial_391_26050)"/>
<ellipse cx="417.465" cy="170.201" rx="3.80952" ry="20.9524" transform="rotate(60 417.465 170.201)" fill="url(#paint19_radial_391_26050)"/>
</g>
<g filter="url(#filter9_f_391_26050)">
<path d="M462.833 122.306L454.309 138.428C450.7 145.254 455.464 153.506 463.18 153.794L481.405 154.473L463.18 155.152C455.464 155.439 450.7 163.691 454.309 170.517L462.833 186.639L453.133 171.196C449.026 164.658 439.497 164.658 435.39 171.196L425.69 186.639L434.214 170.517C437.823 163.691 433.059 155.439 425.343 155.152L407.119 154.473L425.343 153.794C433.059 153.506 437.823 145.254 434.214 138.428L425.69 122.306L435.39 137.749C439.497 144.288 449.026 144.288 453.133 137.749L462.833 122.306Z" fill="#FFDE6A"/>
</g>
</g>
</g>
<defs>
<filter id="filter0_f_391_26050" x="322.095" y="31.6641" width="243.81" height="243.81" filterUnits="userSpaceOnUse" color-interpolation-filters="sRGB">
<feFlood flood-opacity="0" result="BackgroundImageFix"/>
<feBlend mode="normal" in="SourceGraphic" in2="BackgroundImageFix" result="shape"/>
<feGaussianBlur stdDeviation="20.9524" result="effect1_foregroundBlur_391_26050"/>
</filter>
<filter id="filter1_f_391_26050" x="372.571" y="82.1402" width="142.857" height="142.857" filterUnits="userSpaceOnUse" color-interpolation-filters="sRGB">
<feFlood flood-opacity="0" result="BackgroundImageFix"/>
<feBlend mode="normal" in="SourceGraphic" in2="BackgroundImageFix" result="shape"/>
<feGaussianBlur stdDeviation="11.9048" result="effect1_foregroundBlur_391_26050"/>
</filter>
<filter id="filter2_f_391_26050" x="393.524" y="103.093" width="100.952" height="100.952" filterUnits="userSpaceOnUse" color-interpolation-filters="sRGB">
<feFlood flood-opacity="0" result="BackgroundImageFix"/>
<feBlend mode="normal" in="SourceGraphic" in2="BackgroundImageFix" result="shape"/>
<feGaussianBlur stdDeviation="8.57143" result="effect1_foregroundBlur_391_26050"/>
</filter>
<filter id="filter3_f_391_26050" x="409.714" y="119.283" width="68.5714" height="68.5714" filterUnits="userSpaceOnUse" color-interpolation-filters="sRGB">
<feFlood flood-opacity="0" result="BackgroundImageFix"/>
<feBlend mode="normal" in="SourceGraphic" in2="BackgroundImageFix" result="shape"/>
<feGaussianBlur stdDeviation="7.14286" result="effect1_foregroundBlur_391_26050"/>
</filter>
<filter id="filter4_f_391_26050" x="409.928" y="114.521" width="68.143" height="78.0952" filterUnits="userSpaceOnUse" color-interpolation-filters="sRGB">
<feFlood flood-opacity="0" result="BackgroundImageFix"/>
<feBlend mode="normal" in="SourceGraphic" in2="BackgroundImageFix" result="shape"/>
<feGaussianBlur stdDeviation="0.952381" result="effect1_foregroundBlur_391_26050"/>
</filter>
<filter id="filter5_f_391_26050" x="386.857" y="98.3308" width="113.8" height="111.131" filterUnits="userSpaceOnUse" color-interpolation-filters="sRGB">
<feFlood flood-opacity="0" result="BackgroundImageFix"/>
<feBlend mode="normal" in="SourceGraphic" in2="BackgroundImageFix" result="shape"/>
<feGaussianBlur stdDeviation="1.42857" result="effect1_foregroundBlur_391_26050"/>
</filter>
<filter id="filter6_i_391_26050" x="383.048" y="92.6165" width="121.905" height="125.714" filterUnits="userSpaceOnUse" color-interpolation-filters="sRGB">
<feFlood flood-opacity="0" result="BackgroundImageFix"/>
<feBlend mode="normal" in="SourceGraphic" in2="BackgroundImageFix" result="shape"/>
<feColorMatrix in="SourceAlpha" type="matrix" values="0 0 0 0 0 0 0 0 0 0 0 0 0 0 0 0 0 0 127 0" result="hardAlpha"/>
<feMorphology radius="1.90476" operator="erode" in="SourceAlpha" result="effect1_innerShadow_391_26050"/>
<feOffset dy="3.80952"/>
<feGaussianBlur stdDeviation="1.90476"/>
<feComposite in2="hardAlpha" operator="arithmetic" k2="-1" k3="1"/>
<feColorMatrix type="matrix" values="0 0 0 0 0.988235 0 0 0 0 0.137255 0 0 0 0 0.137255 0 0 0 1 0"/>
<feBlend mode="normal" in2="shape" result="effect1_innerShadow_391_26050"/>
</filter>
<filter id="filter7_f_391_26050" x="369.714" y="83.0926" width="148.572" height="141.905" filterUnits="userSpaceOnUse" color-interpolation-filters="sRGB">
<feFlood flood-opacity="0" result="BackgroundImageFix"/>
<feBlend mode="normal" in="SourceGraphic" in2="BackgroundImageFix" result="shape"/>
<feGaussianBlur stdDeviation="11.9048" result="effect1_foregroundBlur_391_26050"/>
</filter>
<filter id="filter8_f_391_26050" x="391.599" y="94.5213" width="104.517" height="118.095" filterUnits="userSpaceOnUse" color-interpolation-filters="sRGB">
<feFlood flood-opacity="0" result="BackgroundImageFix"/>
<feBlend mode="normal" in="SourceGraphic" in2="BackgroundImageFix" result="shape"/>
<feGaussianBlur stdDeviation="3.80952" result="effect1_foregroundBlur_391_26050"/>
</filter>
<filter id="filter9_f_391_26050" x="401.404" y="116.592" width="85.7147" height="75.7618" filterUnits="userSpaceOnUse" color-interpolation-filters="sRGB">
<feFlood flood-opacity="0" result="BackgroundImageFix"/>
<feBlend mode="normal" in="SourceGraphic" in2="BackgroundImageFix" result="shape"/>
<feGaussianBlur stdDeviation="2.85714" result="effect1_foregroundBlur_391_26050"/>
</filter>
<radialGradient id="paint0_radial_391_26050" cx="0" cy="0" r="1" gradientUnits="userSpaceOnUse" gradientTransform="translate(428.417 127.465) rotate(90) scale(20.9524 0.952381)">
<stop stop-color="#FFD028"/>
<stop offset="1" stop-color="#FFD028" stop-opacity="0"/>
</radialGradient>
<radialGradient id="paint1_radial_391_26050" cx="0" cy="0" r="1" gradientUnits="userSpaceOnUse" gradientTransform="translate(458.893 180.251) rotate(90) scale(20.9524 0.952381)">
<stop stop-color="#FFD028"/>
<stop offset="1" stop-color="#FFD028" stop-opacity="0"/>
</radialGradient>
<radialGradient id="paint2_radial_391_26050" cx="0" cy="0" r="1" gradientUnits="userSpaceOnUse" gradientTransform="translate(413.488 153.744) rotate(90) scale(20.9524 0.952381)">
<stop stop-color="#FFD028"/>
<stop offset="1" stop-color="#FFD028" stop-opacity="0"/>
</radialGradient>
<radialGradient id="paint3_radial_391_26050" cx="0" cy="0" r="1" gradientUnits="userSpaceOnUse" gradientTransform="translate(474.44 153.744) rotate(90) scale(20.9524 0.952381)">
<stop stop-color="#FFD028"/>
<stop offset="1" stop-color="#FFD028" stop-opacity="0"/>
</radialGradient>
<radialGradient id="paint4_radial_391_26050" cx="0" cy="0" r="1" gradientUnits="userSpaceOnUse" gradientTransform="translate(458.893 126.512) rotate(90) scale(20.9524 0.952381)">
<stop stop-color="#FFD028"/>
<stop offset="1" stop-color="#FFD028" stop-opacity="0"/>
</radialGradient>
<radialGradient id="paint5_radial_391_26050" cx="0" cy="0" r="1" gradientUnits="userSpaceOnUse" gradientTransform="translate(428.417 179.299) rotate(90) scale(20.9524 0.952381)">
<stop stop-color="#FFD028"/>
<stop offset="1" stop-color="#FFD028" stop-opacity="0"/>
</radialGradient>
<radialGradient id="paint6_radial_391_26050" cx="0" cy="0" r="1" gradientUnits="userSpaceOnUse" gradientTransform="translate(442.02 157.129) rotate(90) scale(47.5897 39.6865)">
<stop stop-color="#FFF171"/>
<stop offset="1" stop-color="#FFF171" stop-opacity="0"/>
</radialGradient>
<radialGradient id="paint7_radial_391_26050" cx="0" cy="0" r="1" gradientUnits="userSpaceOnUse" gradientTransform="translate(443.795 135.011) rotate(90) scale(31.9178 45.2709)">
<stop stop-color="#FFF171"/>
<stop offset="1" stop-color="#FFF171" stop-opacity="0"/>
</radialGradient>
<radialGradient id="paint8_radial_391_26050" cx="0" cy="0" r="1" gradientUnits="userSpaceOnUse" gradientTransform="translate(441.997 143.421) rotate(90) scale(36.8326 35.8476)">
<stop stop-color="#FFF171"/>
<stop offset="1" stop-color="#FFF171" stop-opacity="0"/>
</radialGradient>
<radialGradient id="paint9_radial_391_26050" cx="0" cy="0" r="1" gradientUnits="userSpaceOnUse" gradientTransform="translate(443.757 162.158) rotate(90) scale(33.5714 52.1378)">
<stop stop-color="#FFF171"/>
<stop offset="1" stop-color="#FFF171" stop-opacity="0"/>
</radialGradient>
<radialGradient id="paint10_radial_391_26050" cx="0" cy="0" r="1" gradientUnits="userSpaceOnUse" gradientTransform="translate(443.524 151.188) rotate(90) scale(63.3333 63.3333)">
<stop offset="0.94761" stop-color="#FFBF1C" stop-opacity="0"/>
<stop offset="1" stop-color="#FFBF1C"/>
</radialGradient>
<radialGradient id="paint11_radial_391_26050" cx="0" cy="0" r="1" gradientUnits="userSpaceOnUse" gradientTransform="translate(446.683 156.252) rotate(90) scale(63.3333 63.3333)">
<stop offset="0.94761" stop-color="#FFBF1C" stop-opacity="0"/>
<stop offset="1" stop-color="#FFBF1C"/>
</radialGradient>
<radialGradient id="paint12_radial_391_26050" cx="0" cy="0" r="1" gradientUnits="userSpaceOnUse" gradientTransform="translate(440.969 153.395) rotate(90) scale(63.3333 63.3333)">
<stop offset="0.94761" stop-color="#FFBF1C" stop-opacity="0"/>
<stop offset="1" stop-color="#FFBF1C"/>
</radialGradient>
<linearGradient id="paint13_linear_391_26050" x1="444" y1="92.6165" x2="444" y2="214.521" gradientUnits="userSpaceOnUse">
<stop stop-color="white"/>
<stop offset="1" stop-color="white" stop-opacity="0"/>
</linearGradient>
<radialGradient id="paint14_radial_391_26050" cx="0" cy="0" r="1" gradientUnits="userSpaceOnUse" gradientTransform="translate(444.081 123.093) rotate(90) scale(20.9524 3.80952)">
<stop stop-color="#FFD028"/>
<stop offset="1" stop-color="#FFD028" stop-opacity="0"/>
</radialGradient>
<radialGradient id="paint15_radial_391_26050" cx="0" cy="0" r="1" gradientUnits="userSpaceOnUse" gradientTransform="translate(444.081 184.045) rotate(90) scale(20.9524 3.80952)">
<stop stop-color="#FFD028"/>
<stop offset="1" stop-color="#FFD028" stop-opacity="0"/>
</radialGradient>
<radialGradient id="paint16_radial_391_26050" cx="0" cy="0" r="1" gradientUnits="userSpaceOnUse" gradientTransform="translate(417.465 139.725) rotate(90) scale(20.9524 3.80952)">
<stop stop-color="#FFD028"/>
<stop offset="1" stop-color="#FFD028" stop-opacity="0"/>
</radialGradient>
<radialGradient id="paint17_radial_391_26050" cx="0" cy="0" r="1" gradientUnits="userSpaceOnUse" gradientTransform="translate(470.251 170.201) rotate(90) scale(20.9524 3.80952)">
<stop stop-color="#FFD028"/>
<stop offset="1" stop-color="#FFD028" stop-opacity="0"/>
</radialGradient>
<radialGradient id="paint18_radial_391_26050" cx="0" cy="0" r="1" gradientUnits="userSpaceOnUse" gradientTransform="translate(470.251 139.725) rotate(90) scale(20.9524 3.80952)">
<stop stop-color="#FFD028"/>
<stop offset="1" stop-color="#FFD028" stop-opacity="0"/>
</radialGradient>
<radialGradient id="paint19_radial_391_26050" cx="0" cy="0" r="1" gradientUnits="userSpaceOnUse" gradientTransform="translate(417.465 170.201) rotate(90) scale(20.9524 3.80952)">
<stop stop-color="#FFD028"/>
<stop offset="1" stop-color="#FFD028" stop-opacity="0"/>
</radialGradient>
</defs>
</svg>
