<svg width="123" height="27" viewBox="0 0 123 27" fill="none" xmlns="http://www.w3.org/2000/svg">
<path d="M11.6261 17.8333C11.6465 18.098 11.0572 18.4516 9.8582 18.8943C10.0812 20.3344 10.2318 21.5628 10.3101 22.5797C10.4453 24.3348 10.29 25.2296 9.84424 25.2639C9.60744 25.2821 9.40813 25.1503 9.2463 24.8685C9.08448 24.5868 8.93389 24.0869 8.79454 23.369C8.59406 22.0393 8.38876 20.7379 8.17864 19.465C7.56468 19.6804 7.00537 19.8776 6.5007 20.0566C5.99496 20.2216 5.23099 20.4907 4.20879 20.8636C3.22969 24.1618 2.6287 25.8195 2.40583 25.8367C2.18296 25.8538 1.929 25.7403 1.64396 25.496C1.37177 25.2367 1.22388 24.9538 1.20028 24.6474C1.18955 24.5081 1.51039 23.4885 2.16279 21.5887L2.01653 21.5999C1.73794 21.6214 1.48023 21.5502 1.24342 21.3862C1.02053 21.2212 0.898895 21.0064 0.878515 20.7417C0.857062 20.4631 1.51869 20.0479 2.8634 19.4959C3.04766 18.9773 3.19388 18.5107 3.30207 18.096C3.56131 17.2773 3.92339 16.1565 4.38832 14.7335C4.85324 13.3105 5.14784 12.405 5.2721 12.0171C5.39529 11.6153 5.63475 11.2676 5.99047 10.9739C6.35905 10.6653 6.72442 10.4971 7.08659 10.4692C7.51841 10.4359 7.95457 11.0959 8.39507 12.4492C8.8495 13.8014 9.25949 15.4864 9.62503 17.504C10.0118 17.4322 10.3515 17.385 10.644 17.3625C11.2709 17.3142 11.5982 17.4712 11.6261 17.8333ZM4.82743 18.7982C5.79605 18.4574 6.82361 18.1541 7.9101 17.8883C7.47595 15.5256 7.09435 13.7544 6.7653 12.5747C6.24895 14.0577 5.60299 16.1322 4.82743 18.7982ZM27.3255 13.5137C27.7991 13.4772 28.2653 13.7076 28.7239 14.2047C29.1815 14.6879 29.4253 15.1246 29.4553 15.5146C29.4736 15.7514 29.3712 15.8784 29.1484 15.8955C28.9951 15.9073 28.7492 15.8072 28.4106 15.595C28.0709 15.369 27.7339 15.2688 27.3996 15.2946C27.0653 15.3203 26.551 15.5561 25.8567 16.0019C25.1763 16.4466 24.8527 16.8849 24.886 17.3167C24.9107 17.6371 25.5938 18.138 26.9354 18.8193C27.4465 19.0883 27.9159 19.4515 28.3434 19.909C28.7839 20.3515 29.0255 20.8513 29.0684 21.4085C29.1103 21.9517 28.7685 22.5175 28.0431 23.1059C27.3306 23.6792 26.4659 24.005 25.4491 24.0833C24.4461 24.1605 23.5359 23.9854 22.7183 23.5579C21.9146 23.1294 21.4962 22.6992 21.4629 22.2674C21.449 22.0863 21.48 21.9438 21.5561 21.8398C21.645 21.7209 21.7591 21.6561 21.8984 21.6453C22.0377 21.6346 22.2397 21.7101 22.5044 21.8719C23.2984 22.3572 24.0994 22.5688 24.9073 22.5066C25.7291 22.4433 26.3142 22.3072 26.6624 22.0982C27.0096 21.8753 27.1713 21.6106 27.1477 21.3042C27.1231 20.9838 26.8954 20.665 26.4646 20.3479C26.0327 20.0168 25.5623 19.7308 25.0533 19.4897C24.5583 19.2476 24.0932 18.9401 23.6581 18.5673C23.2231 18.1944 22.9895 17.799 22.9573 17.3812C22.9004 16.6429 23.4195 15.8322 24.5145 14.9492C25.6224 14.0512 26.5594 13.5727 27.3255 13.5137ZM32.324 8.0634C32.2821 7.52015 32.4284 7.23565 32.7627 7.20991C33.0273 7.18953 33.322 7.37702 33.6467 7.77238C33.9854 8.16667 34.1697 8.55883 34.1997 8.94886C34.2694 9.85429 34.1587 11.4182 33.8674 13.6405C33.589 15.8479 33.1713 18.0659 32.6142 20.2947C33.8131 17.6662 34.8362 15.7588 35.6837 14.5726C36.544 13.3714 37.3085 12.745 37.9771 12.6935C38.3393 12.6656 38.7813 12.9469 39.3032 13.5372C39.839 14.1265 40.131 14.7346 40.1793 15.3614C40.2276 15.9882 40.1258 16.9419 39.8741 18.2224C39.2529 21.437 38.5592 23.0738 37.7931 23.1328C37.4867 23.1564 37.3173 22.9592 37.2852 22.5413C37.253 22.1234 37.366 21.4071 37.6241 20.3924C38.1961 18.1764 38.4532 16.6924 38.3953 15.9402C38.3759 15.6894 38.2972 15.4853 38.1589 15.3278C38.0207 15.1703 37.861 15.0985 37.68 15.1125C37.4989 15.1264 37.2835 15.2411 37.0339 15.4565C36.7842 15.6719 36.4901 16.0378 36.1516 16.5543C35.7262 17.2176 35.2859 17.9591 34.8306 18.7789C34.3892 19.5976 34.1192 20.0948 34.0206 20.2705C33.9349 20.4312 33.7758 20.7307 33.5433 21.169C33.3248 21.6062 33.1608 21.9341 33.0516 22.1527C32.9412 22.3574 32.8046 22.5851 32.6418 22.8358C32.3568 23.3202 32.1307 23.5688 31.9636 23.5816C31.7964 23.5945 31.5617 23.4585 31.2595 23.1735C30.9563 22.8745 30.7966 22.6206 30.7805 22.4116C30.7634 22.1888 30.8083 21.772 30.9154 21.1612C31.406 18.4331 31.7037 16.5675 31.8086 15.5646C32.2541 11.8871 32.4259 9.38672 32.324 8.0634ZM48.032 15.4924C47.9955 15.0188 47.8846 14.5789 47.6992 14.1728C47.5127 13.7528 47.2657 13.4565 46.9582 13.2841C46.0174 13.6227 45.246 14.4318 44.6439 15.7112C44.0546 16.9757 43.8013 18.1442 43.8839 19.2167C43.9665 20.2893 44.2827 20.9376 44.8324 21.1615C45.8203 20.8892 46.6174 20.1412 47.2238 18.9175C47.843 17.6788 48.1124 16.5371 48.032 15.4924ZM42.5512 16.1036C42.9551 14.9795 43.5203 14.0392 44.2467 13.2827C44.986 12.5111 45.7665 12.0937 46.5884 12.0304C47.4242 11.9661 48.148 12.2676 48.7599 12.9351C49.3707 13.5887 49.7153 14.4239 49.7936 15.4408C49.8708 16.4437 49.7064 17.4933 49.3004 18.5895C48.8933 19.6717 48.2847 20.5944 47.4747 21.3573C46.6776 22.1053 45.7984 22.5163 44.8373 22.5903C44.1269 22.645 43.5097 22.3633 42.9857 21.745C42.4616 21.1268 42.161 20.3163 42.0838 19.3133C42.0055 18.2965 42.1613 17.2265 42.5512 16.1036ZM52.3661 14.1497L52.1827 12.5875C52.1323 11.9328 52.2603 11.5936 52.5668 11.5701C52.8315 11.5497 53.0956 11.7045 53.3592 12.0345C53.6357 12.3495 53.7922 12.7438 53.8286 13.2174C53.864 13.6771 53.8769 14.0264 53.8673 14.2653C54.9376 12.3333 56.016 11.3255 57.1025 11.2418C57.785 11.1892 58.1392 11.3301 58.1649 11.6644C58.1778 11.8316 58.113 11.9907 57.9705 12.1418C57.828 12.2929 57.5966 12.4719 57.2762 12.6787C56.5626 13.0559 55.9738 13.5987 55.5099 14.307C55.0589 15.0003 54.7053 15.7772 54.4493 16.6376C54.1933 17.4981 53.9898 18.2214 53.8387 18.8075C53.7016 19.3926 53.5966 19.849 53.5238 20.1769C53.451 20.5048 53.3637 20.8268 53.2619 21.1429C53.0819 21.7173 52.8457 22.0157 52.5532 22.0382C52.3164 22.0565 52.1112 21.9391 51.9375 21.6863C51.7768 21.4184 51.6868 21.1591 51.6675 20.9084C51.6471 20.6437 51.7258 20.1192 51.9036 19.3348C52.3396 17.5357 52.4937 15.8074 52.3661 14.1497ZM60.8106 19.2585C60.831 19.5232 60.9944 19.6437 61.3009 19.6201C61.8302 19.5793 62.4597 19.3837 63.1894 19.0333C63.9319 18.6678 64.345 18.4819 64.4286 18.4755C64.6793 18.4562 64.8148 18.5788 64.8352 18.8435C64.8663 19.2475 64.4844 19.7463 63.6894 20.34C62.9083 20.9326 62.1764 21.2552 61.4939 21.3077C60.8253 21.3592 60.2541 21.221 59.7805 20.8932C59.3058 20.5514 59.0534 20.1855 59.0234 19.7955C58.9934 19.4054 59.0389 18.9045 59.1599 18.2927C59.2799 17.6669 59.455 16.8477 59.6853 15.8351C59.9284 14.8075 60.1153 13.9594 60.246 13.2907C59.6031 13.4944 59.1702 13.6048 58.9474 13.6219C58.7245 13.6391 58.493 13.5448 58.253 13.3391C58.0258 13.1184 57.9042 12.9036 57.8881 12.6946C57.8624 12.3603 58.7431 11.9702 60.5304 11.5243C60.6921 10.3489 60.7386 9.31538 60.6699 8.42388C60.6378 8.006 60.761 7.78633 61.0396 7.76487C61.2764 7.74664 61.5807 7.87734 61.9525 8.15697C62.3233 8.42268 62.5232 8.74358 62.5521 9.11968C62.5811 9.49578 62.5136 10.1666 62.3498 11.132C63.1384 11.0012 63.7695 10.9176 64.2431 10.8811C65.0789 10.8168 65.5107 10.9657 65.5386 11.3278C65.5547 11.5368 65.3383 11.7286 64.8893 11.9033C64.4543 12.0769 63.5237 12.3658 62.0976 12.7698C61.8898 13.8928 61.6177 15.1819 61.2814 16.637C60.944 18.0782 60.787 18.952 60.8106 19.2585ZM74.3777 13.7369C74.3949 13.9598 74.179 14.1585 73.7301 14.3332C73.295 14.5069 72.2203 14.8348 70.5059 15.3171C68.8055 15.7984 67.8717 16.0454 67.7045 16.0583C67.5513 16.0701 67.3541 15.9662 67.113 15.7466C66.8719 15.5269 66.7439 15.3196 66.7288 15.1246C66.7052 14.8181 67.4697 14.465 69.0223 14.0652C70.5739 13.6515 71.9277 13.4001 73.0839 13.3111C73.9196 13.2467 74.3509 13.3886 74.3777 13.7369ZM77.9498 6.63087C77.9284 6.35228 78.0194 6.07904 78.223 5.81114C78.4266 5.54325 78.6398 5.40072 78.8626 5.38356C79.0994 5.36532 79.4 5.62943 79.7644 6.17587C80.1277 6.70839 80.3238 7.16269 80.3528 7.53879C80.3635 7.67809 80.3105 7.80828 80.1937 7.92937C80.0769 8.05046 79.9488 8.11637 79.8095 8.1271C79.4752 8.15284 79.0836 7.97982 78.6346 7.60804C78.1995 7.23519 77.9713 6.90947 77.9498 6.63087ZM78.0738 9.60593C78.3385 9.58555 78.6015 9.72643 78.863 10.0286C79.1245 10.3307 79.267 10.635 79.2906 10.9415C79.3142 11.2479 79.183 12.1828 78.8971 13.7462C78.61 15.2956 78.233 17.0412 77.766 18.9828C77.5828 19.6975 77.3101 20.0688 76.9479 20.0967C76.7529 20.1117 76.5799 20.048 76.4288 19.9055C76.2766 19.749 76.193 19.5733 76.178 19.3783C76.1619 19.1693 76.186 18.8452 76.2503 18.4059C76.3274 17.9516 76.4355 17.3547 76.5748 16.6154C76.7269 15.861 76.8409 15.2497 76.917 14.7814C77.007 14.3121 77.0926 13.7871 77.174 13.2063C77.2543 12.6116 77.3159 12.1374 77.3587 11.7838C77.4144 11.4152 77.4771 11.0461 77.5467 10.6764C77.6892 9.97884 77.8649 9.62202 78.0738 9.60593ZM83.0483 15.9908C84.2107 13.6173 85.1674 11.8481 85.9184 10.6833C86.6823 9.50353 87.3289 8.89325 87.8583 8.85249C88.4015 8.81066 88.9319 9.05706 89.4495 9.59171C89.981 10.1253 90.2715 10.7124 90.3208 11.3532C90.398 12.3561 90.2626 13.5996 89.9145 15.0837C89.2846 17.8226 88.6354 19.2177 87.9668 19.2692C87.6603 19.2928 87.491 19.0957 87.4588 18.6778C87.4363 18.3853 87.537 17.782 87.7609 16.868C87.9976 15.9389 88.2081 15.033 88.3923 14.15C88.5894 13.2521 88.6713 12.5872 88.6381 12.1554C88.6037 11.7096 88.5089 11.3876 88.3535 11.1894C88.212 10.9901 88.0717 10.8959 87.9324 10.9066C87.807 10.9162 87.6779 10.9682 87.545 11.0625C87.4122 11.1568 87.2627 11.3084 87.0966 11.5174C86.9445 11.7253 86.7993 11.9326 86.6611 12.1395C86.5218 12.3323 86.3472 12.612 86.1372 12.9785C85.9412 13.3439 85.7762 13.6579 85.6422 13.9204C85.5073 14.169 85.3112 14.5344 85.0541 15.0166C84.7969 15.4988 84.6009 15.8642 84.4659 16.1128C84.3309 16.3614 84.1536 16.6973 83.934 17.1206C83.7143 17.5439 83.5365 17.8728 83.4004 18.1075C83.2783 18.3411 83.1369 18.5972 82.9762 18.8758C82.6676 19.418 82.4089 19.6972 82.1999 19.7133C82.0049 19.7283 81.7633 19.5928 81.475 19.3067C81.1857 19.0067 81.0319 18.7383 81.0137 18.5015C81.0083 18.4318 81.0426 18.24 81.1165 17.9261C81.3189 17.0978 81.5348 16.0793 81.764 14.8706C81.9921 13.648 82.0616 12.2764 81.9726 10.756C81.9361 9.73589 82.0432 9.2162 82.2939 9.19689C82.6004 9.17329 82.9192 9.30989 83.2503 9.60667C83.5814 9.90345 83.762 10.2469 83.792 10.6369C83.821 11.013 83.7594 11.7604 83.6074 12.879C83.4681 13.9827 83.2818 15.02 83.0483 15.9908ZM94.6008 16.6565C94.6212 16.9212 94.7846 17.0417 95.0911 17.0181C95.6204 16.9774 96.2499 16.7818 96.9796 16.4313C97.7221 16.0659 98.1352 15.8799 98.2187 15.8735C98.4695 15.8542 98.605 15.9769 98.6254 16.2415C98.6565 16.6455 98.2746 17.1443 97.4795 17.738C96.6984 18.3306 95.9666 18.6532 95.2841 18.7058C94.6155 18.7572 94.0443 18.6191 93.5707 18.2912C93.096 17.9494 92.8436 17.5835 92.8136 17.1935C92.7835 16.8035 92.829 16.3025 92.9501 15.6907C93.07 15.0649 93.2452 14.2457 93.4755 13.2331C93.7186 12.2055 93.9055 11.3574 94.0362 10.6888C93.3933 10.8924 92.9604 11.0028 92.7375 11.02C92.5147 11.0371 92.2832 10.9429 92.0432 10.7372C91.816 10.5164 91.6944 10.3016 91.6783 10.0927C91.6525 9.75836 92.5333 9.36826 94.3205 8.92237C94.4822 7.7469 94.5288 6.71342 94.4601 5.82193C94.428 5.40404 94.5512 5.18437 94.8297 5.16292C95.0666 5.14468 95.3709 5.27538 95.7427 5.55502C96.1135 5.82073 96.3133 6.14163 96.3423 6.51773C96.3713 6.89383 96.3038 7.5646 96.1399 8.53005C96.9286 8.39926 97.5597 8.31563 98.0333 8.27916C98.8691 8.21481 99.3009 8.36371 99.3288 8.72588C99.3449 8.93483 99.1284 9.12664 98.6795 9.30134C98.2445 9.47496 97.3139 9.7638 95.8877 10.1679C95.6799 11.2908 95.4079 12.5799 95.0715 14.035C94.7341 15.4763 94.5772 16.3501 94.6008 16.6565ZM101.154 10.3929L100.97 8.83068C100.92 8.17598 101.048 7.83684 101.354 7.81324C101.619 7.79286 101.883 7.94767 102.147 8.27768C102.423 8.59268 102.58 8.98699 102.616 9.46059C102.652 9.92027 102.665 10.2696 102.655 10.5085C103.725 8.57651 104.804 7.56866 105.89 7.485C106.573 7.43244 106.927 7.57331 106.953 7.90762C106.965 8.07478 106.901 8.2339 106.758 8.385C106.616 8.53609 106.384 8.71506 106.064 8.92188C105.35 9.29911 104.761 9.84188 104.298 10.5502C103.847 11.2435 103.493 12.0204 103.237 12.8808C102.981 13.7413 102.777 14.4646 102.626 15.0507C102.489 15.6357 102.384 16.0922 102.311 16.4201C102.239 16.748 102.151 17.07 102.05 17.3861C101.87 17.9604 101.633 18.2589 101.341 18.2814C101.104 18.2996 100.899 18.1823 100.725 17.9295C100.564 17.6616 100.474 17.4023 100.455 17.1516C100.435 16.8869 100.513 16.3624 100.691 15.578C101.127 13.7789 101.281 12.0506 101.154 10.3929ZM113.205 10.4739C113.168 10.0002 113.057 9.5604 112.872 9.15431C112.685 8.73429 112.438 8.43803 112.131 8.26555C111.19 8.60422 110.419 9.41327 109.816 10.6927C109.227 11.9571 108.974 13.1257 109.057 14.1982C109.139 15.2708 109.455 15.9191 110.005 16.143C110.993 15.8707 111.79 15.1227 112.396 13.899C113.016 12.6603 113.285 11.5186 113.205 10.4739ZM107.724 11.0851C108.128 9.961 108.693 9.0207 109.419 8.26415C110.159 7.4926 110.939 7.07519 111.761 7.0119C112.597 6.94754 113.321 7.24912 113.932 7.91662C114.543 8.5702 114.888 9.40542 114.966 10.4223C115.043 11.4252 114.879 12.4748 114.473 13.571C114.066 14.6532 113.457 15.5758 112.647 16.3388C111.85 17.0868 110.971 17.4978 110.01 17.5718C109.299 17.6265 108.682 17.3448 108.158 16.7265C107.634 16.1083 107.334 15.2977 107.256 14.2948C107.178 13.278 107.334 12.208 107.724 11.0851ZM117.843 14.7197C118.057 14.4089 118.283 14.2444 118.52 14.2262C118.756 14.208 119.068 14.5273 119.455 15.1841C119.841 15.8269 120.047 16.3155 120.072 16.6498C120.08 16.7474 120.019 16.8642 119.889 17.0002C119.76 17.1363 119.632 17.2092 119.507 17.2189C119.158 17.2457 118.752 17.0598 118.287 16.6612C117.821 16.2487 117.577 15.9032 117.555 15.6246C117.533 15.3321 117.629 15.0305 117.843 14.7197ZM119.431 0.136784C119.696 0.116404 120.071 0.255672 120.556 0.554586C121.042 0.8535 121.292 1.10046 121.307 1.29548C121.398 2.4795 121.252 4.58557 120.869 7.6137C120.499 10.6408 120.134 12.1682 119.771 12.1961C119.549 12.2133 119.331 12.1179 119.119 11.9101C118.906 11.6883 118.789 11.452 118.77 11.2013C118.75 11.1188 118.795 10.6109 118.905 9.6776C119.029 8.74322 119.132 7.43918 119.213 5.76547C119.293 4.07783 119.269 2.39126 119.139 0.705782C119.111 0.343612 119.208 0.153946 119.431 0.136784Z" fill="#443405"/>
</svg>
