<svg width="68" height="68" viewBox="0 0 68 68" fill="none" xmlns="http://www.w3.org/2000/svg">
<path fill-rule="evenodd" clip-rule="evenodd" d="M1.42667 17.0236C1.6849 17.577 1.92172 18.1359 2.22157 18.6709C4.85203 23.3927 8.48791 27.449 12.4738 31.1078C16.8324 35.1168 21.7953 38.5137 27.1215 41.2403C34.5806 45.0633 42.7191 47.7953 51.0002 48.6915C54.6474 49.0893 58.3146 48.9905 61.9247 48.7316C62.0515 48.7314 62.1601 48.6248 62.168 48.4959C62.1759 48.3671 62.0837 48.2634 61.957 48.2636C58.435 48.0325 54.944 47.4129 51.4022 46.7586C43.4485 45.2883 35.4845 42.9247 28.1682 39.2402C22.9486 36.6137 18.0433 33.4242 13.6312 29.7141C9.57557 26.3028 6.08196 22.3377 2.86217 18.1846C2.49142 17.7149 2.10441 17.2811 1.72652 16.8132C1.67524 16.731 1.56732 16.7106 1.48797 16.7702C1.40148 16.8316 1.37539 16.9413 1.42667 17.0236Z" fill="#443405"/>
<path fill-rule="evenodd" clip-rule="evenodd" d="M61.9399 48.9373C59.2121 50.3255 55.4978 51.8987 54.4649 52.382L50.7636 54.1192C49.4023 54.8286 48.3534 55.5708 48.8714 56.2843C49.1627 57.2939 50.9471 56.1673 51.4397 56.0272L55.1807 54.4791C56.3957 53.9658 62.4896 51.4664 64.9159 50.2417C66.1916 49.6016 66.6719 48.6842 66.7007 48.5018C66.7683 48.0627 66.6416 47.362 65.8841 46.8681C64.9753 46.277 62.1775 45.5806 61.8352 45.4598C59.9056 44.8074 58.0381 44.0359 56.1706 43.2643C53.338 42.0989 50.5373 40.9016 47.793 39.5069C47.5596 39.3666 47.2464 39.4614 47.0877 39.7164C46.9361 39.9696 46.9979 40.2886 47.2326 40.4365C48.9105 41.6779 50.5761 42.8905 52.3527 43.9637C55.0219 45.5764 57.8621 46.8753 60.7671 48.0702C60.9334 48.1239 61.4946 48.5637 61.9399 48.9373Z" fill="#443405"/>
</svg>
