<svg width="24" height="24" viewBox="0 0 24 24" fill="none" xmlns="http://www.w3.org/2000/svg">
<path d="M22.3055 7.73144C22.2569 6.63041 22.0789 5.87346 21.8239 5.21755C21.5608 4.52132 21.156 3.89799 20.6257 3.37981C20.1075 2.85357 19.4802 2.44465 18.7921 2.18564C18.1324 1.93059 17.3795 1.75254 16.2785 1.70399C15.1694 1.65134 14.8173 1.63916 12.0041 1.63916C9.191 1.63916 8.83889 1.65134 7.73384 1.69988C6.6329 1.74843 5.87602 1.92663 5.22033 2.18153C4.524 2.44465 3.90072 2.84946 3.38259 3.37981C2.85639 3.89799 2.44767 4.52543 2.18853 5.2136C1.93349 5.87346 1.75546 6.6263 1.70692 7.72733C1.65426 8.83658 1.64209 9.18873 1.64209 12.0021C1.64209 14.8155 1.65426 15.1676 1.7028 16.2728C1.75135 17.3738 1.92954 18.1308 2.18457 18.7867C2.44767 19.4829 2.85639 20.1062 3.38259 20.6244C3.90072 21.1506 4.52811 21.5596 5.21622 21.8186C5.87602 22.0736 6.62879 22.2517 7.72989 22.3002C8.83478 22.3489 9.18705 22.3609 12.0002 22.3609C14.8133 22.3609 15.1654 22.3489 16.2705 22.3002C17.3714 22.2517 18.1283 22.0736 18.784 21.8186C20.1765 21.2801 21.2774 20.1791 21.8158 18.7867C22.0707 18.1268 22.2489 17.3738 22.2974 16.2728C22.3459 15.1676 22.3581 14.8155 22.3581 12.0021C22.3581 9.18873 22.354 8.83658 22.3055 7.73144ZM20.4396 16.1918C20.395 17.2038 20.225 17.7503 20.0834 18.1146C19.7352 19.0174 19.0188 19.7338 18.1161 20.082C17.7518 20.2237 17.2014 20.3937 16.1935 20.4381C15.1006 20.4868 14.7728 20.4988 12.0082 20.4988C9.24365 20.4988 8.91178 20.4868 7.82286 20.4381C6.81094 20.3937 6.2645 20.2237 5.90021 20.082C5.45101 19.916 5.04214 19.6529 4.71026 19.3088C4.36621 18.9728 4.10311 18.568 3.93709 18.1187C3.79542 17.7544 3.62545 17.2038 3.58102 16.1959C3.53232 15.103 3.52031 14.775 3.52031 12.0102C3.52031 9.24534 3.53232 8.91343 3.58102 7.82457C3.62545 6.81257 3.79542 6.26608 3.93709 5.90176C4.10311 5.45237 4.36621 5.04361 4.71437 4.71155C5.0502 4.36747 5.45497 4.10434 5.90432 3.93847C6.26861 3.79679 6.81916 3.6268 7.82697 3.58221C8.91984 3.53367 9.24776 3.52149 12.0122 3.52149C14.7809 3.52149 15.1087 3.53367 16.1976 3.58221C17.2095 3.6268 17.7559 3.79679 18.1202 3.93847C18.5694 4.10434 18.9783 4.36747 19.3102 4.71155C19.6542 5.04757 19.9173 5.45237 20.0834 5.90176C20.225 6.26608 20.395 6.81652 20.4396 7.82457C20.4881 8.91754 20.5003 9.24534 20.5003 12.0102C20.5003 14.775 20.4881 15.0988 20.4396 16.1918Z" fill="white"/>
<path d="M12.0041 6.67895C9.06562 6.67895 6.68144 9.06318 6.68144 12.0021C6.68144 14.941 9.06562 17.3253 12.0041 17.3253C14.9428 17.3253 17.3268 14.941 17.3268 12.0021C17.3268 9.06318 14.9428 6.67895 12.0041 6.67895ZM12.0041 15.4551C10.0978 15.4551 8.55144 13.9088 8.55144 12.0021C8.55144 10.0954 10.0978 8.54911 12.0041 8.54911C13.9107 8.54911 15.4568 10.0954 15.4568 12.0021C15.4568 13.9088 13.9107 15.4551 12.0041 15.4551Z" fill="white"/>
<path d="M18.78 6.46849C18.78 7.15475 18.2236 7.7112 17.5373 7.7112C16.8511 7.7112 16.2947 7.15475 16.2947 6.46849C16.2947 5.78206 16.8511 5.22577 17.5373 5.22577C18.2236 5.22577 18.78 5.78206 18.78 6.46849Z" fill="white"/>
</svg>
