<svg width="24" height="24" viewBox="0 0 24 24" fill="none" xmlns="http://www.w3.org/2000/svg">
<path d="M8.11506 18.7585H5.28199V9.61173H8.11506V18.7585ZM8.39773 6.69756C8.39773 5.78172 7.65469 5.03835 6.73931 5.03835C5.82046 5.03835 5.07931 5.78172 5.07931 6.69756C5.07931 7.61373 5.82046 8.35709 6.73931 8.35709C7.65469 8.35709 8.39773 7.61373 8.39773 6.69756ZM18.7185 13.7263C18.7185 11.2709 18.1998 9.44984 15.3315 9.44984C13.9532 9.44984 13.028 10.1391 12.6503 10.8559H12.6477V9.61173H9.89553V18.7585H12.6477V14.2171C12.6477 13.0277 12.9504 11.8755 14.4246 11.8755C15.8788 11.8755 15.9259 13.2356 15.9259 14.2926V18.7585H18.7185V13.7263ZM22.361 19.9322V4.06702C22.361 2.72795 21.2718 1.63867 19.9327 1.63867H4.0675C2.72844 1.63867 1.63916 2.72795 1.63916 4.06702V19.9322C1.63916 21.2713 2.72844 22.3605 4.0675 22.3605H19.9327C21.2718 22.3605 22.361 21.2713 22.361 19.9322ZM19.9327 3.25757C20.379 3.25757 20.7421 3.62071 20.7421 4.06702V19.9322C20.7421 20.3785 20.379 20.7416 19.9327 20.7416H4.0675C3.6212 20.7416 3.25806 20.3785 3.25806 19.9322V4.06702C3.25806 3.62071 3.6212 3.25757 4.0675 3.25757H19.9327Z" fill="white"/>
</svg>
