<svg width="1302" height="363" viewBox="0 0 1302 363" fill="none" xmlns="http://www.w3.org/2000/svg">
<g filter="url(#filter0_d_154_3838)">
<path d="M1129.93 64C1131.86 64 1134.55 64.1943 1137.98 64.582C1141.41 64.7759 1144.95 65.0663 1148.6 65.4541C1151.6 65.8419 1154.5 67.2958 1157.29 69.8164C1160.29 72.337 1162.54 74.8583 1164.05 77.3789C1176.06 110.729 1188.18 144.369 1200.41 178.301C1212.85 212.038 1225.08 245.582 1237.1 278.932C1240.1 287.851 1235.6 294.056 1223.58 297.546C1221.87 297.934 1220.26 298.224 1218.75 298.418C1217.47 298.806 1215.97 299 1214.25 299C1211.25 299 1208.46 298.128 1205.88 296.383C1203.52 294.444 1201.81 292.02 1200.73 289.111V289.402L1129.93 93.957L1059.46 289.402V289.111C1058.17 292.02 1056.34 294.444 1053.98 296.383C1051.84 298.128 1049.16 299 1045.94 299C1044.22 299 1042.51 298.806 1040.79 298.418C1039.29 298.224 1037.68 297.934 1035.96 297.546H1036.28C1024.06 294.056 1019.55 287.851 1022.77 278.932L1096.14 77.3789C1097.22 74.2767 1099.04 71.6592 1101.61 69.5264C1104.4 67.3936 1107.62 66.1329 1111.27 65.7451C1114.91 65.1634 1118.45 64.7759 1121.89 64.582C1125.32 64.1942 1128 64 1129.93 64Z" fill="white"/>
<path d="M177.602 65.4541C183.18 65.4541 189.08 66.4234 195.302 68.3623C201.738 70.3012 207.746 72.9196 213.324 76.2158H213.002C218.58 79.8998 222.657 84.7472 225.231 90.7578C228.02 96.7684 229.415 103.749 229.415 111.698V144.563C229.415 152.319 227.591 158.718 223.943 163.759C220.296 168.606 216.435 172.484 212.358 175.393C215.147 176.944 217.83 178.592 220.404 180.337C222.979 181.888 225.124 183.633 226.84 185.572C229.629 188.287 231.775 191.486 233.276 195.17C234.993 198.854 235.852 203.217 235.852 208.258V249.848C235.852 265.747 228.986 277.478 215.255 285.04C208.39 288.918 201.846 291.826 195.624 293.765C189.617 295.704 183.609 296.673 177.602 296.673H129.973C126.326 296.673 123.43 295.316 121.284 292.602C119.353 289.887 118.388 286.3 118.388 281.841C118.388 272.146 122.893 266.298 131.903 266.298H175.993C183.931 266.298 189.509 265.262 192.728 261.19C195.946 257.119 197.555 252.562 197.555 247.521V210.584C197.555 206.125 195.731 201.859 192.084 197.787C188.437 193.521 182 191.097 172.774 190.516C169.368 194.253 165.548 196.93 161.314 198.549C157.549 200.742 153.172 202 148.5 202C134.417 202 123 190.583 123 176.5C123 162.417 134.417 151 148.5 151C153.74 151 158.61 152.582 162.661 155.292C166.317 157.178 169.582 159.418 172.453 162.014C177.173 161.82 180.82 161.141 183.395 159.978C185.969 158.814 187.792 157.457 188.865 155.906C190.153 154.161 190.904 152.222 191.118 150.089C191.333 147.956 191.44 145.823 191.44 143.69V114.315C191.44 109.468 189.724 105.008 186.291 100.937C183.073 96.8649 177.495 94.8291 169.557 94.8291H102.297L101.975 286.784C101.975 290.662 99.9366 293.668 95.8604 295.801C91.9985 297.74 87.7073 298.709 82.9873 298.709C70.3292 298.709 64.0001 294.056 64 284.749V82.9043C64.0001 75.9243 65.9312 71.271 69.793 68.9443C73.8693 66.6177 78.6964 65.4541 84.2744 65.4541H177.602Z" fill="white"/>
<path d="M951.902 64C964.775 64 971.212 68.6533 971.212 77.96V284.167C971.212 293.474 964.775 298.128 951.902 298.128C939.244 298.128 932.915 293.474 932.915 284.167V77.96C932.915 68.6533 939.244 64 951.902 64Z" fill="white"/>
<path d="M439.109 65.4541C447.048 65.4541 451.231 71.3015 451.66 80.9961C452.089 90.8847 447.906 96.8291 439.109 96.8291H344.816V265.298H444.902C452.841 265.298 456.917 271.049 457.132 280.55C457.561 290.632 453.484 296.673 444.902 296.673H327.117C319.179 296.673 313.814 294.831 311.025 291.147C308.236 287.464 306.842 283.391 306.842 278.932V82.9043C306.842 78.4451 308.237 74.4704 311.025 70.9805C313.814 67.2965 319.179 65.4541 327.117 65.4541H439.109Z" fill="white"/>
<path d="M647.06 65.4541C654.998 65.4541 659.181 71.3015 659.61 80.9961C660.039 90.8847 655.856 96.8291 647.06 96.8291H552.767V265.298H652.853C660.791 265.298 664.867 271.049 665.082 280.55C665.511 290.632 661.434 296.673 652.853 296.673H535.066C527.128 296.673 521.765 294.831 518.976 291.147C516.187 287.463 514.792 283.391 514.792 278.932V82.9043C514.792 78.445 516.187 74.4704 518.976 70.9805C521.765 67.2965 527.128 65.4542 535.066 65.4541H647.06Z" fill="white"/>
<path d="M741.086 64C753.958 64 760.395 68.6533 760.396 77.96V265.298H867.883C875.606 265.298 879.468 271.049 879.468 280.55C879.897 290.632 876.035 296.673 867.883 296.673H742.695C734.757 296.673 729.394 294.831 726.604 291.147C723.815 287.463 722.421 283.391 722.421 278.932V77.96C722.421 68.6533 728.643 64 741.086 64Z" fill="white"/>
<path d="M1129.5 193C1143.58 193 1155 204.417 1155 218.5C1155 232.583 1143.58 244 1129.5 244C1115.42 244 1104 232.583 1104 218.5C1104 204.417 1115.42 193 1129.5 193Z" fill="white"/>
<path d="M390.5 151C404.583 151 416 162.417 416 176.5C416 190.583 404.583 202 390.5 202C376.417 202 365 190.583 365 176.5C365 162.417 376.417 151 390.5 151Z" fill="white"/>
<path d="M598.5 151C612.583 151 624 162.417 624 176.5C624 190.583 612.583 202 598.5 202C584.417 202 573 190.583 573 176.5C573 162.417 584.417 151 598.5 151Z" fill="white"/>
</g>
<defs>
<filter id="filter0_d_154_3838" x="0" y="0" width="1302" height="363" filterUnits="userSpaceOnUse" color-interpolation-filters="sRGB">
<feFlood flood-opacity="0" result="BackgroundImageFix"/>
<feColorMatrix in="SourceAlpha" type="matrix" values="0 0 0 0 0 0 0 0 0 0 0 0 0 0 0 0 0 0 127 0" result="hardAlpha"/>
<feOffset/>
<feGaussianBlur stdDeviation="32"/>
<feComposite in2="hardAlpha" operator="out"/>
<feColorMatrix type="matrix" values="0 0 0 0 1 0 0 0 0 1 0 0 0 0 1 0 0 0 0.25 0"/>
<feBlend mode="normal" in2="BackgroundImageFix" result="effect1_dropShadow_154_3838"/>
<feBlend mode="normal" in="SourceGraphic" in2="effect1_dropShadow_154_3838" result="shape"/>
</filter>
</defs>
</svg>
